<svg version="1.2" xmlns="http://www.w3.org/2000/svg" viewBox="0 0 817 770" width="817" height="770">
	<style>
		.s0 { fill: #cccccc } 
		.s1 { fill: #d6d6e3 } 
		.s2 { fill: #b6b3c5 } 
		.s3 { fill: #090814 } 
		.s4 { fill: #ffffff } 
		.s5 { fill: #3f3d56 } 
		.s6 { fill: #ffb9b9 } 
		.s7 { opacity: .15;fill: #000000 } 
		.s8 { fill: #a3b696 } 
		.s9 { fill: #f2f2f2 } 
	</style>
	<g id="Group_43">
		<path id="Path_782-6531" class="s0" d="m74.71 768.37q-0.03 0.28 0.06 0.55 0.08 0.26 0.26 0.48 0.18 0.21 0.42 0.34 0.25 0.13 0.53 0.16h632.14c0.36-0.07 0.68-0.26 0.91-0.54 0.23-0.27 0.36-0.63 0.36-0.99 0-0.36-0.13-0.71-0.36-0.99-0.23-0.28-0.55-0.47-0.91-0.54h-632.14q-0.28 0.03-0.53 0.16-0.24 0.13-0.42 0.35-0.18 0.21-0.26 0.48-0.09 0.26-0.06 0.54z"/>
		<path id="Path_783-6532" class="s1" d="m414.39 617.62c-1.03 6.25-4.25 11.93-9.08 16.03-4.83 4.1-10.96 6.35-17.3 6.35-6.33 0-12.46-2.25-17.29-6.35-4.83-4.1-8.05-9.78-9.09-16.03h-67.48v146.26h187.73v-146.26z"/>
		<path id="Rectangle_253" fill-rule="evenodd" class="s2" d="m297.42 763.33h18.56v3.28h-18.56z"/>
		<path id="Rectangle_254" fill-rule="evenodd" class="s2" d="m461.69 763.88h18.55v3.27h-18.55z"/>
		<path id="Rectangle_255" fill-rule="evenodd" class="s3" d="m294.69 752.29h187.74v5.09h-187.74z"/>
		<path id="Path_784-6533" class="s3" d="m765.56 621.44h-755.09c-1.38 0-2.74-0.27-4.01-0.8-1.27-0.52-2.42-1.3-3.39-2.27-0.97-0.97-1.74-2.12-2.27-3.39-0.53-1.27-0.8-2.63-0.8-4v-430.94c0-1.37 0.27-2.73 0.8-4 0.53-1.27 1.3-2.42 2.27-3.39 0.97-0.98 2.12-1.75 3.39-2.27 1.27-0.53 2.63-0.8 4.01-0.8h755.09c1.37 0 2.73 0.27 4 0.8 1.27 0.52 2.43 1.29 3.4 2.26 0.97 0.98 1.74 2.13 2.27 3.4 0.52 1.27 0.79 2.63 0.8 4v430.94c-0.01 1.37-0.28 2.73-0.8 4-0.53 1.27-1.3 2.42-2.27 3.39-0.97 0.97-2.13 1.74-3.4 2.27-1.27 0.53-2.63 0.8-4 0.8z"/>
		<path id="Rectangle_256" fill-rule="evenodd" class="s4" d="m18.55 187.04h738.92v416.94h-738.92z"/>
		<g id="Group_42">
			<path id="Path_754-6540" class="s5" d="m702.51 359.4c-8.46 8.23-9.49 20.89-9.49 20.89 0 0 12.67-0.7 21.13-8.93 8.45-8.23 9.49-20.88 9.49-20.88 0 0-12.68 0.69-21.13 8.92z"/>
			<path id="Path_755-6541" class="s5" d="m656.87 606.4l-1.29-1.35c0.2-0.2 51.41-69.36 59.1-106.32 7.1-34.13 4.69-85.34-47.14-159.25-39.75-56.68-55.83-106.2-47.81-147.18 7.05-36.01 170.21-37.71 170.46-37.86l1.01 1.57c-0.24 0.15-162.77 1.47-169.65 36.7-7.89 40.46 8.09 89.48 47.52 145.7 23.06 32.88 38.41 65.08 45.62 95.7 5.78 24.54 6.39 43.14 1.79 65.12-7.83 37.48-59.4 106.97-59.61 107.17z"/>
			<path id="Path_757-6542" class="s3" d="m694.49 0.6c0 0-24.89-7.01-32.25 26.99-7.36 34.01-1.75 51.19-1.75 51.19l55.57-6.48c0 0 15.77-61.36-21.57-71.7z"/>
			<path id="Path_758-6543" class="s6" d="m657.25 147.9c0 0-36.51 3.63-30.01 18.37 6.51 14.75 6.51 16.05 6.51 16.05l32.08 57.23 10.41-10.84c0 0-11.71-25.59-11.71-33.82 0-8.23-12.14-22.54-12.14-22.54l21.24-1.74z"/>
			<path id="Path_759-6544" class="s6" d="m757.31 165.41l12.14 26.44c0 0 9.1 9.11 19.08 45.53 9.97 36.42 12.14 35.12 12.14 35.12l-15.18 3.03c0 0-16.91-39.45-22.54-42.49-5.64-3.03-12.58-30.78-12.58-30.78l-19.94-25.15 6.07-13.44z"/>
			<path id="Path_760-6545" class="s3" d="m742.57 135.06l18.64 34.69c0 0-23.41-10.84-26.88 13l-21.24-16.47c0 0-29.48 9.53-47.26 6.07 0 0 5.2-16.48-13.44-23.85l42.05-5.2-1.73-9.11 4.33-8.67z"/>
			<path id="Path_761-6546" class="s3" d="m668.42 231.74c0 0-11.7-1.73-8.67 8.68l6.08 20.8c0 0-7.81 21.25 4.33 16.48 12.14-4.77 19.95-34.26 19.95-34.26 0 0 5.2-22.54 0-22.54-5.21 0-21.69-3.47-19.95 0 1.74 3.47-1.74 10.84-1.74 10.84z"/>
			<path id="Path_762-6547" class="s3" d="m799.37 266.43c0 0-15.18-3.9-18.65 2.17-3.47 6.07-2.6 26.01-2.6 26.44 0 0.44 5.21 4.77 6.94 4.77 1.74 0 12.58 19.51 27.32 12.58 14.74-6.94-13.01-45.96-13.01-45.96z"/>
			<path id="Ellipse_135" fill-rule="evenodd" class="s6" d="m690.11 53.55c-9.35 0-16.91-7.56-16.91-16.91 0-9.35 7.56-16.91 16.91-16.91 9.35 0 16.91 7.56 16.91 16.91 0 9.35-7.56 16.91-16.91 16.91z"/>
			<path id="Path_763-6548" class="s6" d="m703.98 40.11c0 0 3.47 18.21 6.51 20.81 3.03 2.6-22.99 6.5-22.99 6.5 0 0 3.91-12.57-0.86-19.08-4.77-6.5 17.34-8.23 17.34-8.23z"/>
			<path id="Path_764-6549" class="s1" d="m749.51 143.29c-2.96 0-10.47-1.22-18.9-2.79-7.3-1.36-15.28-2.98-21.57-4.29-6.74-1.41-11.56-2.46-11.56-2.46 0 0-1.74 10.84-7.37 9.54-4.86-1.12-19.37-51.81-23.29-65.82q-0.22-0.76-0.18-1.56 0.04-0.79 0.33-1.54 0.3-0.74 0.81-1.35 0.51-0.61 1.19-1.02l19.93-12.17 5.11 1.95c0 0 8.63-6.67 13.64-6.8 5.01-0.14 13.68-1.44 13.68-1.44 0 0 9.97 0.87 11.7 8.24 1.74 7.37 2.6 53.33 9.11 61.57 6.5 8.23 15.6 19.94 7.37 19.94z"/>
			<path id="Path_765-6550" class="s6" d="m688.81 167.57c0 0 0 16.91 11.27 14.31 11.27-2.6 0.87-18.21 0.87-18.21z"/>
			<path id="Path_766-6551" class="s6" d="m720.02 169.31c0 0-3.9 19.95-12.14 16.91-8.24-3.03 0-20.81 0-20.81z"/>
			<path id="Path_767-6552" class="s7" d="m738.23 122.05c0 0-4.24 10.13-7.62 18.45-7.3-1.36-15.28-2.98-21.57-4.29q0.17-0.45 0.37-0.88 0.2-0.44 0.44-0.85 0.24-0.42 0.5-0.82 0.27-0.39 0.57-0.77c3.03-3.47 1.3-4.34 1.3-4.34-2.6-5.2-0.44-12.14-0.44-12.14-5.2-13.87 2.6-31.21 2.6-31.21z"/>
			<path id="Path_768-6553" class="s1" d="m715.69 85.2c0 0-7.81 17.34-2.6 31.21 0 0-2.17 6.94 0.43 12.14 0 0 1.74 0.87-1.29 4.34-3.04 3.47-5.64 15.61-3.47 18.21 2.17 2.6-3.04 7.37-1.74 9.97 1.3 2.6-2.17 6.07-2.17 6.07 0 0 13.01 2.6 15.18 6.5 0 0 2.6-3.03 1.3-6.5-1.3-3.47-0.44-4.77 0.87-6.94 1.3-2.17 5.2-6.94 5.63-9.1 0.44-2.17 11.71-29.05 11.71-29.05l-5.29-48.99z"/>
			<path id="Path_769-6554" class="s1" d="m670.6 73.06l-0.81 0.14q-0.85 0.16-1.59 0.59-0.75 0.44-1.3 1.1-0.54 0.66-0.83 1.47-0.29 0.81-0.29 1.67c0.03 4.36 0.28 12.08 1.35 22.77 1.73 17.35 7.8 43.36 9.1 45.97q0.78 1.72 1.6 3.43 0.82 1.7 1.69 3.38 0.86 1.68 1.78 3.34 0.91 1.66 1.87 3.29c3.9 6.5 4.77 4.33 3.9 7.37q-0.2 0.63-0.21 1.28-0.01 0.66 0.16 1.29 0.17 0.64 0.52 1.2 0.34 0.56 0.83 1c0.32 0.29 7.8-8.67 15.61-3.9q0.21-0.46 0.37-0.94 0.16-0.48 0.27-0.97 0.11-0.49 0.16-0.99 0.06-0.5 0.07-1.01c0-2.16 1.3-4.33-0.87-5.63-2.17-1.3 1.3-6.94-2.17-9.97-3.47-3.04-3.9-2.6-3.47-5.64q0.08-0.77 0.06-1.55-0.02-0.77-0.13-1.54-0.11-0.77-0.31-1.51-0.2-0.75-0.48-1.47z"/>
			<path id="Path_770-6555" class="s3" d="m696.43 14.92c0 0-7.01 18.58-24.19 26.29l-2.81-16.48z"/>
			<path id="Path_791-6556" class="s8" d="m790.32 137.05c-2.91 10.74-12.85 17.39-12.85 17.39 0 0-5.24-10.76-2.34-21.5 2.9-10.73 12.85-17.38 12.85-17.38 0 0 5.24 10.75 2.34 21.49z"/>
		</g>
	</g>
	<g>
		<path class="s1" d="m74.01 768.47q-0.03 0.27 0.05 0.54 0.09 0.27 0.27 0.48 0.18 0.22 0.42 0.35 0.25 0.13 0.53 0.16h635.12c0.36-0.06 0.69-0.25 0.93-0.53 0.23-0.28 0.36-0.64 0.36-1 0-0.37-0.13-0.72-0.36-1-0.24-0.29-0.57-0.47-0.93-0.54h-635.12q-0.28 0.03-0.53 0.16-0.24 0.13-0.42 0.35-0.18 0.21-0.27 0.48-0.08 0.27-0.05 0.55z"/>
		<path fill-rule="evenodd" class="s8" d="m89.79 210.12c-2.31 0-4.17-1.87-4.17-4.18 0-2.3 1.86-4.17 4.17-4.17 2.31 0 4.17 1.87 4.17 4.17 0 2.31-1.86 4.18-4.17 4.18z"/>
		<path fill-rule="evenodd" class="s8" d="m105.63 210.12c-2.31 0-4.18-1.87-4.18-4.18 0-2.3 1.87-4.17 4.18-4.17 2.3 0 4.17 1.87 4.17 4.17 0 2.31-1.87 4.18-4.17 4.18z"/>
		<path fill-rule="evenodd" class="s8" d="m121.46 210.12c-2.3 0-4.17-1.87-4.17-4.18 0-2.3 1.87-4.17 4.17-4.17 2.31 0 4.18 1.87 4.18 4.17 0 2.31-1.87 4.18-4.18 4.18z"/>
		<path class="s0" d="m205.8 309.65h-113.79c-1.69 0-3.32-0.68-4.52-1.88-1.2-1.2-1.87-2.82-1.87-4.52 0-1.7 0.67-3.32 1.87-4.52 1.2-1.2 2.83-1.88 4.52-1.88h113.79c1.7 0 3.32 0.68 4.52 1.88 1.2 1.2 1.88 2.82 1.88 4.52 0 1.7-0.68 3.32-1.88 4.52-1.2 1.2-2.82 1.88-4.52 1.88z"/>
		<path class="s0" d="m205.8 285.07h-113.79c-1.69 0-3.32-0.67-4.52-1.87-1.2-1.2-1.87-2.83-1.87-4.53 0-1.69 0.67-3.32 1.87-4.52 1.2-1.2 2.83-1.87 4.52-1.87h113.79c1.7 0 3.32 0.67 4.52 1.87 1.2 1.2 1.88 2.83 1.88 4.52 0 1.7-0.68 3.33-1.88 4.53-1.2 1.2-2.82 1.87-4.52 1.87z"/>
		<path class="s0" d="m124.33 333.88h-32.32c-1.69 0-3.32-0.67-4.52-1.87-1.2-1.2-1.87-2.83-1.87-4.52 0-1.7 0.67-3.33 1.87-4.52 1.2-1.2 2.83-1.88 4.52-1.88h32.32c1.7 0 3.32 0.68 4.52 1.88 1.2 1.19 1.88 2.82 1.88 4.52 0 1.69-0.68 3.32-1.88 4.52-1.2 1.2-2.82 1.87-4.52 1.87z"/>
		<path class="s0" d="m205.8 536.62h-113.79c-1.69 0-3.32-0.67-4.52-1.87-1.2-1.2-1.87-2.83-1.87-4.53 0-1.69 0.67-3.32 1.87-4.52 1.2-1.2 2.83-1.87 4.52-1.87h113.79c1.7 0 3.32 0.67 4.52 1.87 1.2 1.2 1.88 2.83 1.88 4.52 0 1.7-0.68 3.33-1.88 4.53-1.2 1.2-2.82 1.87-4.52 1.87z"/>
		<path class="s0" d="m205.8 512.05h-113.79c-1.69 0-3.32-0.68-4.52-1.88-1.2-1.2-1.87-2.82-1.87-4.52 0-1.7 0.67-3.32 1.87-4.52 1.2-1.2 2.83-1.88 4.52-1.88h113.79c1.7 0 3.32 0.68 4.52 1.88 1.2 1.2 1.88 2.82 1.88 4.52 0 1.7-0.68 3.32-1.88 4.52-1.2 1.2-2.82 1.88-4.52 1.88z"/>
		<path class="s0" d="m124.33 560.86h-32.32c-1.69 0-3.32-0.67-4.52-1.87-1.2-1.2-1.87-2.83-1.87-4.53 0-1.69 0.67-3.32 1.87-4.52 1.2-1.2 2.83-1.87 4.52-1.87h32.32c1.7 0 3.32 0.67 4.52 1.87 1.2 1.2 1.88 2.83 1.88 4.52 0 1.7-0.68 3.33-1.88 4.53-1.2 1.2-2.82 1.87-4.52 1.87z"/>
		<path class="s8" d="m203.01 452.56q-0.64 0.01-1.26-0.12-0.62-0.12-1.2-0.36-0.58-0.24-1.11-0.58-0.53-0.35-0.98-0.8l-30.13-29.75q-0.89-0.88-1.38-2.04-0.48-1.17-0.48-2.42 0-1.26 0.48-2.43 0.49-1.16 1.38-2.04l30.01-29.63q0.94-0.92 2.15-1.42 1.22-0.49 2.53-0.49 1.32 0 2.53 0.5 1.22 0.51 2.15 1.44 0.93 0.93 1.44 2.15 0.5 1.22 0.5 2.54 0 1.32-0.5 2.54-0.51 1.22-1.44 2.16l-22.29 22.29q-0.52 0.53-0.81 1.21-0.28 0.68-0.28 1.42 0 0.74 0.28 1.42 0.29 0.68 0.81 1.2l22.17 22.18c0.91 0.9 1.52 2.05 1.77 3.31 0.25 1.25 0.12 2.56-0.37 3.74-0.49 1.18-1.32 2.19-2.38 2.9-1.07 0.71-2.32 1.09-3.59 1.08z"/>
		<path class="s0" d="m347.19 309.65h-113.78c-1.7 0-3.33-0.68-4.53-1.88-1.2-1.2-1.87-2.82-1.87-4.52 0-1.7 0.67-3.32 1.87-4.52 1.2-1.2 2.83-1.88 4.53-1.88h113.78c1.7 0 3.33 0.68 4.53 1.88 1.2 1.2 1.87 2.82 1.87 4.52 0 1.7-0.67 3.32-1.87 4.52-1.2 1.2-2.83 1.88-4.53 1.88z"/>
		<path class="s0" d="m347.19 333.88h-197.94c-1.7 0-3.33-0.67-4.52-1.87-1.2-1.2-1.88-2.83-1.88-4.52 0-1.7 0.68-3.33 1.88-4.52 1.19-1.2 2.82-1.88 4.52-1.88h197.94c1.7 0 3.33 0.68 4.53 1.88 1.2 1.19 1.87 2.82 1.87 4.52 0 1.69-0.67 3.32-1.87 4.52-1.2 1.2-2.83 1.87-4.53 1.87z"/>
		<path class="s0" d="m268.42 285.41h-32.32c-1.7 0-3.33-0.68-4.53-1.88-1.2-1.2-1.87-2.82-1.87-4.52 0-1.7 0.67-3.32 1.87-4.52 1.2-1.2 2.83-1.88 4.53-1.88h32.31c1.7 0 3.33 0.68 4.53 1.88 1.2 1.2 1.87 2.82 1.87 4.52 0 1.7-0.67 3.32-1.87 4.52-1.2 1.2-2.83 1.88-4.52 1.88z"/>
		<path class="s0" d="m347.19 536.62h-113.78c-1.7 0-3.33-0.67-4.53-1.87-1.2-1.2-1.87-2.83-1.87-4.53 0-1.69 0.67-3.32 1.87-4.52 1.2-1.2 2.83-1.87 4.53-1.87h113.78c1.7 0 3.33 0.67 4.53 1.87 1.2 1.2 1.87 2.83 1.87 4.52 0 1.7-0.67 3.33-1.87 4.53-1.2 1.2-2.83 1.87-4.53 1.87z"/>
		<path class="s0" d="m347.19 560.86h-197.94c-1.7 0-3.33-0.67-4.52-1.87-1.2-1.2-1.88-2.83-1.88-4.53 0-1.69 0.68-3.32 1.88-4.52 1.19-1.2 2.82-1.87 4.52-1.87h197.94c1.7 0 3.33 0.67 4.53 1.87 1.2 1.2 1.87 2.83 1.87 4.52 0 1.7-0.67 3.33-1.87 4.53-1.2 1.2-2.83 1.87-4.53 1.87z"/>
		<path class="s0" d="m268.42 512.38h-32.32c-1.7 0-3.33-0.67-4.53-1.87-1.2-1.2-1.87-2.83-1.87-4.52 0-1.7 0.67-3.33 1.87-4.53 1.2-1.2 2.83-1.87 4.53-1.87h32.31c1.7 0 3.33 0.67 4.53 1.87 1.2 1.2 1.87 2.83 1.87 4.53 0 1.69-0.67 3.32-1.87 4.52-1.2 1.2-2.83 1.87-4.52 1.87z"/>
		<path class="s8" d="m251.01 452.56c-1.28 0.01-2.53-0.37-3.59-1.08-1.07-0.71-1.9-1.72-2.39-2.9-0.49-1.18-0.62-2.49-0.37-3.74 0.25-1.26 0.87-2.41 1.78-3.31l22.17-22.18q0.52-0.52 0.8-1.2 0.28-0.68 0.29-1.42-0.01-0.74-0.29-1.42-0.28-0.68-0.8-1.21l-22.29-22.29q-0.94-0.94-1.44-2.16-0.51-1.22-0.51-2.54 0-1.32 0.51-2.54 0.5-1.22 1.44-2.15 0.93-0.93 2.14-1.43 1.22-0.51 2.53-0.51 1.32 0 2.53 0.49 1.22 0.5 2.16 1.42l30 29.63q0.9 0.88 1.38 2.05 0.49 1.16 0.49 2.42 0 1.26-0.49 2.42-0.48 1.16-1.38 2.04l-30.13 29.76q-0.45 0.44-0.97 0.79-0.53 0.34-1.11 0.58-0.59 0.24-1.21 0.36-0.62 0.12-1.25 0.12z"/>
		<path class="s8" d="m609.44 338.94h-141.06c-2.52 0-4.56-2.7-4.56-6.03 0-3.33 2.04-6.04 4.56-6.04h141.06c2.52 0 4.56 2.71 4.56 6.04 0 3.33-2.04 6.03-4.56 6.03z"/>
		<g>
			<path fill-rule="evenodd" class="s9" d="m418.5 364.08c-17.24 0-31.17-13.93-31.17-31.17 0-17.24 13.93-31.17 31.17-31.17 17.24 0 31.17 13.93 31.17 31.17 0 17.24-13.93 31.17-31.17 31.17z"/>
			<path class="s3" d="m418.5 301.74c12.61 0 23.97 7.59 28.8 19.24 4.82 11.65 2.16 25.06-6.76 33.97-8.91 8.92-22.32 11.58-33.97 6.76-11.65-4.83-19.24-16.19-19.24-28.8 0-4.1 0.8-8.15 2.37-11.93 1.57-3.78 3.86-7.22 6.76-10.11 2.89-2.9 6.33-5.19 10.11-6.76 3.78-1.57 7.84-2.37 11.93-2.37zm0 1.94c-6.74 0.01-13.28 2.34-18.49 6.61-5.22 4.27-8.8 10.21-10.14 16.82-1.34 6.61-0.35 13.48 2.79 19.44 3.15 5.97 8.25 10.66 14.46 13.29 7.15 3.01 15.19 3.07 22.38 0.15 7.18-2.91 12.91-8.56 15.93-15.71 3.01-7.14 3.07-15.19 0.15-22.37-2.91-7.18-8.56-12.91-15.71-15.93q-1.34-0.57-2.74-1-1.39-0.43-2.83-0.72-1.43-0.29-2.88-0.44-1.46-0.14-2.92-0.14z"/>
			<path class="s8" d="m415.03 346.13q-0.32 0-0.65-0.08-0.32-0.07-0.61-0.22-0.29-0.15-0.55-0.36-0.25-0.21-0.45-0.47l-6.93-9.24c-0.44-0.6-0.64-1.35-0.53-2.1 0.1-0.74 0.5-1.41 1.1-1.86 0.6-0.45 1.35-0.64 2.1-0.53 0.74 0.1 1.41 0.5 1.86 1.1l4.53 6.04 11.64-17.47c0.42-0.62 1.07-1.05 1.8-1.2 0.74-0.15 1.5 0.01 2.12 0.42 0.62 0.42 1.06 1.06 1.2 1.8 0.15 0.73 0 1.5-0.42 2.12l-13.85 20.79q-0.19 0.28-0.44 0.51-0.25 0.23-0.55 0.39-0.29 0.17-0.62 0.26-0.33 0.08-0.67 0.09z"/>
		</g>
		<path fill-rule="evenodd" class="s9" d="m418.5 449.81c-17.24 0-31.17-13.94-31.17-31.18 0-17.24 13.93-31.17 31.17-31.17 17.24 0 31.17 13.93 31.17 31.17 0 17.24-13.93 31.18-31.17 31.18z"/>
		<path class="s3" d="m418.5 387.46c12.61 0 23.97 7.6 28.8 19.24 4.82 11.65 2.16 25.06-6.76 33.98-8.91 8.91-22.32 11.58-33.97 6.75-11.65-4.82-19.24-16.19-19.24-28.8 0-4.09 0.8-8.14 2.37-11.93 1.57-3.78 3.86-7.21 6.76-10.11 2.89-2.89 6.33-5.19 10.11-6.76 3.78-1.56 7.84-2.37 11.93-2.37zm0 1.95c-6.74 0-13.28 2.34-18.49 6.61-5.22 4.27-8.8 10.21-10.14 16.82-1.34 6.6-0.35 13.47 2.79 19.44 3.15 5.96 8.25 10.65 14.46 13.28 7.15 3.02 15.19 3.07 22.38 0.16 7.18-2.92 12.91-8.57 15.93-15.71 3.01-7.14 3.07-15.19 0.15-22.37-2.91-7.19-8.56-12.92-15.71-15.94q-1.34-0.57-2.74-1-1.39-0.43-2.83-0.72-1.43-0.29-2.88-0.43-1.46-0.14-2.92-0.14z"/>
		<g>
			<path class="s8" d="m427.13 409.27c-0.95-1.42-2.24-2.58-3.74-3.38-1.51-0.81-3.19-1.23-4.89-1.23-1.71 0-3.39 0.42-4.89 1.23-1.5 0.8-2.79 1.96-3.74 3.38 0.7 1.71 1.89 3.18 3.43 4.22 1.54 1.03 3.35 1.58 5.2 1.58 1.85 0 3.66-0.55 5.2-1.58 1.53-1.04 2.73-2.51 3.43-4.22z"/>
			<path class="s8" d="m408.75 410.91q-0.06-0.02-0.11-0.05-0.06-0.03-0.11-0.06-0.05-0.03-0.11-0.06-0.05-0.03-0.1-0.07-0.07-0.06-0.14-0.13-0.07-0.07-0.13-0.15-0.06-0.08-0.11-0.16-0.05-0.08-0.09-0.17c0.28-0.58 0.22-1.28-0.16-1.8-0.38-0.52-1.03-0.79-1.67-0.69-0.64 0.09-1.17 0.54-1.39 1.15-0.21 0.61-0.07 1.29 0.37 1.76q0.05 0.05 0.09 0.1 0.05 0.04 0.1 0.08 0.06 0.05 0.11 0.08 0.06 0.04 0.11 0.08 0.08 0.04 0.14 0.09 0.07 0.05 0.13 0.12 0.06 0.06 0.11 0.13 0.05 0.07 0.09 0.14 0.07 0.15 0.16 0.3 0.09 0.14 0.19 0.27 0.1 0.14 0.22 0.26 0.11 0.12 0.24 0.23 0.12 0.11 0.26 0.22 0.13 0.1 0.27 0.2 0.14 0.1 0.28 0.19 0.14 0.09 0.29 0.17-0.2 0.58-0.36 1.16-0.16 0.59-0.27 1.19-0.12 0.6-0.19 1.2-0.06 0.6-0.09 1.21-0.23 0.01-0.47 0.03-0.23 0.02-0.46 0.06-0.24 0.03-0.46 0.09-0.23 0.05-0.46 0.12-0.11 0.04-0.23 0.08-0.11 0.05-0.22 0.1-0.1 0.05-0.21 0.12-0.1 0.06-0.2 0.13-0.02 0-0.05-0.01-0.03 0-0.05 0-0.03 0-0.06 0-0.02 0-0.05 0c-0.65-0.01-1.25 0.35-1.56 0.93-0.3 0.58-0.26 1.28 0.11 1.82 0.38 0.53 1.02 0.82 1.66 0.74 0.65-0.08 1.2-0.52 1.43-1.13q0.05-0.15 0.14-0.27 0.09-0.13 0.21-0.22 0.12-0.1 0.26-0.16 0.14-0.06 0.29-0.08 0.06-0.01 0.11-0.01 0.06-0.01 0.12-0.01 0.05 0 0.11-0.01 0.06 0 0.11 0 0.08 0.86 0.25 1.7 0.17 0.84 0.43 1.66 0.27 0.82 0.62 1.6 0.35 0.79 0.78 1.53-0.34 0.24-0.64 0.53-0.3 0.29-0.54 0.63-0.25 0.34-0.44 0.71-0.19 0.37-0.31 0.77-0.02 0.01-0.04 0.02-0.02 0.01-0.03 0.03-0.02 0.01-0.04 0.02-0.01 0.01-0.03 0.03-0.03 0.02-0.05 0.04-0.03 0.03-0.06 0.05-0.02 0.02-0.05 0.05-0.02 0.02-0.05 0.05c-0.42 0.47-0.56 1.12-0.36 1.72 0.2 0.6 0.7 1.05 1.32 1.17 0.62 0.12 1.26-0.1 1.67-0.58 0.41-0.48 0.52-1.15 0.31-1.74q-0.06-0.16-0.08-0.33-0.01-0.17 0.03-0.33 0.04-0.17 0.12-0.31 0.09-0.15 0.21-0.27 0.05-0.04 0.1-0.09 0.05-0.04 0.1-0.09 0.05-0.04 0.11-0.09 0.05-0.04 0.1-0.08 0.65 0.84 1.46 1.54 0.82 0.69 1.75 1.2 0.94 0.51 1.96 0.82 1.02 0.31 2.09 0.39v-15.62q-1.41-0.11-2.75-0.58-1.33-0.46-2.5-1.26-1.17-0.79-2.09-1.86-0.93-1.07-1.55-2.34zm24.29 7.72q-0.03 0-0.05 0-0.03 0-0.06 0.01-0.02 0-0.05 0-0.03 0-0.05 0.01-0.1-0.07-0.21-0.14-0.1-0.06-0.21-0.11-0.11-0.05-0.22-0.1-0.11-0.05-0.22-0.08-0.23-0.07-0.46-0.13-0.22-0.05-0.46-0.09-0.23-0.04-0.46-0.06-0.24-0.02-0.47-0.02-0.03-0.61-0.1-1.21-0.07-0.61-0.18-1.2-0.12-0.6-0.27-1.19-0.16-0.58-0.36-1.16 0.14-0.08 0.29-0.17 0.14-0.09 0.28-0.19 0.14-0.1 0.27-0.2 0.13-0.11 0.26-0.22 0.13-0.12 0.25-0.25 0.12-0.12 0.22-0.26 0.11-0.14 0.2-0.29 0.09-0.15 0.17-0.31 0.04-0.07 0.08-0.13 0.05-0.06 0.1-0.11 0.06-0.06 0.12-0.1 0.06-0.05 0.13-0.08c0.61-0.35 0.95-1.01 0.88-1.71-0.07-0.69-0.55-1.27-1.21-1.48-0.66-0.21-1.39-0.01-1.84 0.52-0.46 0.52-0.56 1.27-0.26 1.89q-0.04 0.09-0.09 0.18-0.05 0.08-0.11 0.16-0.06 0.07-0.13 0.14-0.07 0.07-0.15 0.13-0.05 0.05-0.1 0.09-0.05 0.04-0.11 0.08-0.05 0.04-0.1 0.07-0.06 0.04-0.11 0.08-0.63 1.26-1.55 2.32-0.93 1.06-2.1 1.84-1.16 0.79-2.5 1.24-1.33 0.46-2.73 0.56v15.64q1.06-0.09 2.08-0.4 1.03-0.3 1.96-0.81 0.94-0.51 1.75-1.21 0.81-0.69 1.46-1.53 0.23 0.18 0.39 0.33 0.13 0.12 0.22 0.27 0.09 0.15 0.13 0.32 0.04 0.17 0.03 0.34-0.01 0.18-0.07 0.34c-0.22 0.59-0.1 1.25 0.31 1.73 0.41 0.48 1.04 0.71 1.66 0.59 0.62-0.12 1.12-0.56 1.32-1.16 0.21-0.6 0.07-1.26-0.35-1.73q-0.03-0.02-0.05-0.05-0.02-0.02-0.05-0.04-0.03-0.03-0.05-0.05-0.03-0.02-0.06-0.05-0.13-0.09-0.14-0.09-0.12-0.4-0.31-0.78-0.19-0.37-0.44-0.71-0.25-0.33-0.55-0.63-0.3-0.29-0.64-0.52 0.43-0.75 0.78-1.53 0.35-0.79 0.61-1.6 0.27-0.82 0.44-1.67 0.17-0.84 0.25-1.69 0.05 0 0.1 0 0.06 0 0.11 0 0.06 0.01 0.11 0.01 0.05 0.01 0.11 0.02 0.15 0.02 0.3 0.08 0.14 0.06 0.26 0.15 0.13 0.1 0.22 0.22 0.1 0.13 0.15 0.28c0.15 0.37 0.42 0.68 0.76 0.87 0.35 0.2 0.75 0.28 1.14 0.21 0.39-0.06 0.75-0.25 1.02-0.55 0.27-0.29 0.43-0.67 0.45-1.06q0.02-0.37-0.1-0.71-0.13-0.34-0.38-0.6-0.25-0.26-0.58-0.41-0.33-0.14-0.68-0.15z"/>
		</g>
		<path class="s8" d="m609.44 424.67h-141.06c-2.52 0-4.56-2.71-4.56-6.04 0-3.33 2.04-6.03 4.56-6.03h141.06c2.52 0 4.56 2.7 4.56 6.03 0 3.33-2.04 6.04-4.56 6.04z"/>
		<path fill-rule="evenodd" class="s9" d="m418.5 535.53c-17.24 0-31.17-13.93-31.17-31.17 0-17.24 13.93-31.18 31.17-31.18 17.24 0 31.17 13.94 31.17 31.18 0 17.24-13.93 31.17-31.17 31.17z"/>
		<path class="s3" d="m418.5 473.18c12.61 0 23.97 7.6 28.8 19.25 4.82 11.65 2.16 25.05-6.76 33.97-8.91 8.91-22.32 11.58-33.97 6.76-11.65-4.83-19.24-16.19-19.24-28.8 0-4.1 0.8-8.15 2.37-11.93 1.57-3.78 3.86-7.22 6.76-10.12 2.89-2.89 6.33-5.19 10.11-6.75 3.78-1.57 7.84-2.38 11.93-2.38zm0 1.95c-6.74 0.01-13.28 2.34-18.49 6.61-5.22 4.27-8.8 10.21-10.14 16.82-1.34 6.61-0.35 13.48 2.79 19.44 3.15 5.96 8.25 10.66 14.46 13.29 7.15 3.01 15.19 3.07 22.38 0.15 7.18-2.92 12.91-8.57 15.93-15.71 3.01-7.14 3.07-15.19 0.15-22.37-2.91-7.18-8.56-12.91-15.71-15.93q-1.34-0.57-2.74-1-1.39-0.43-2.83-0.72-1.43-0.29-2.88-0.44-1.46-0.14-2.92-0.14z"/>
		<path class="s8" d="m418.23 487.8h1.04l1.01 0.03 0.48 0.02 0.95 0.06 0.9 0.07c7.63 0.75 10.83 3.8 11.67 11.25l0.05 0.48 0.08 0.9 0.06 1.18 0.01 0.25 0.03 1 0.01 1.05-0.01 1.05-0.03 1-0.02 0.49-0.05 0.94-0.08 0.9c-0.74 7.64-3.8 10.83-11.25 11.68l-0.47 0.04-0.9 0.08-1.19 0.07-0.24 0.01-1.01 0.02-1.04 0.01-1.05-0.01-1-0.02-0.49-0.03-0.94-0.05-0.9-0.08c-7.64-0.74-10.84-3.8-11.68-11.25l-0.05-0.47-0.07-0.9-0.07-1.19-0.01-0.24-0.02-1-0.01-0.52v-1.06-0.52l0.03-1 0.02-0.49 0.06-0.94 0.07-0.9c0.75-7.64 3.8-10.84 11.25-11.68l0.48-0.05 0.9-0.07 1.18-0.07 0.25-0.01 1-0.02q0.52-0.01 1.05-0.01zm0.01 21.18l-0.2 0.01c-0.4 0.04-0.76 0.23-1.03 0.53-0.26 0.3-0.41 0.69-0.41 1.08 0 0.4 0.15 0.79 0.41 1.09 0.27 0.3 0.63 0.49 1.03 0.53l0.19 0.01 0.21-0.01c0.4-0.04 0.76-0.23 1.03-0.53 0.26-0.3 0.41-0.69 0.41-1.09 0-0.39-0.15-0.78-0.41-1.08-0.27-0.3-0.63-0.49-1.03-0.53zm-0.02-14.67q-0.3 0-0.58 0.11-0.28 0.11-0.5 0.31-0.22 0.19-0.36 0.46-0.14 0.27-0.18 0.56l-0.01 0.2v9.77l0.01 0.2c0.05 0.39 0.24 0.76 0.54 1.02 0.3 0.27 0.68 0.42 1.08 0.42 0.4 0 0.79-0.15 1.08-0.42 0.3-0.26 0.49-0.63 0.54-1.02l0.01-0.2v-9.78l-0.01-0.19q-0.04-0.3-0.17-0.56-0.14-0.27-0.37-0.47-0.22-0.2-0.5-0.3-0.28-0.11-0.58-0.11z"/>
		<path class="s8" d="m609.44 510.39h-141.06c-2.52 0-4.56-2.7-4.56-6.03 0-3.34 2.04-6.04 4.56-6.04h141.06c2.52 0 4.56 2.7 4.56 6.04 0 3.33-2.04 6.03-4.56 6.03z"/>
		<path fill-rule="evenodd" class="s0" d="m602 221.76v0.83h-516.65v-0.83z"/>
	</g>
</svg>